<svg xmlns="http://www.w3.org/2000/svg" width="302" height="81" viewBox="0 0 302 81"><g transform="translate(55.891 64.686)"><path d="M1065.149,3455.987h-4.056v11.154h-1.886v-11.154h-4.074v-1.579h10.016Z" transform="translate(-1055.133 -3454.054)" fill="#fff"/><path d="M1084.3,3458.772a4.92,4.92,0,0,1,1.259-.931,3.421,3.421,0,0,1,1.588-.354,3.235,3.235,0,0,1,1.313.248,2.605,2.605,0,0,1,.947.7,3.014,3.014,0,0,1,.578,1.078,4.677,4.677,0,0,1,.2,1.392v5.736h-1.744V3460.9a2.29,2.29,0,0,0-.445-1.5,1.666,1.666,0,0,0-1.361-.537,2.6,2.6,0,0,0-1.25.315,4.174,4.174,0,0,0-1.081.856v6.605h-1.735v-13.087h1.735Z" transform="translate(-1071.216 -3453.549)" fill="#fff"/><path d="M1113.313,3470.96a3.414,3.414,0,0,1-.739.643,4.267,4.267,0,0,1-.889.439,5.378,5.378,0,0,1-.974.248,6.29,6.29,0,0,1-.992.079,4.671,4.671,0,0,1-1.73-.314,3.838,3.838,0,0,1-1.379-.922,4.2,4.2,0,0,1-.907-1.508,6.084,6.084,0,0,1-.325-2.07,5.116,5.116,0,0,1,.294-1.751,4.211,4.211,0,0,1,.841-1.414,3.866,3.866,0,0,1,1.338-.948,4.391,4.391,0,0,1,1.779-.346,4.182,4.182,0,0,1,1.526.271,3.392,3.392,0,0,1,1.205.784,3.635,3.635,0,0,1,.8,1.269,4.773,4.773,0,0,1,.289,1.72,1.094,1.094,0,0,1-.089.536.362.362,0,0,1-.329.137H1107.1a4.846,4.846,0,0,0,.231,1.406,2.83,2.83,0,0,0,.565,1,2.236,2.236,0,0,0,.858.594,3.027,3.027,0,0,0,1.112.2,3.365,3.365,0,0,0,1-.132,4.918,4.918,0,0,0,.729-.289c.2-.1.377-.2.516-.289a.715.715,0,0,1,.369-.133.381.381,0,0,1,.329.16Zm-1.432-4.22a2.943,2.943,0,0,0-.147-.949,2.146,2.146,0,0,0-.432-.754,1.96,1.96,0,0,0-.694-.5,2.641,2.641,0,0,0-2.664.452,3.038,3.038,0,0,0-.8,1.747Z" transform="translate(-1084.59 -3459.159)" fill="#fff"/><path d="M1152.256,3460.775a7.066,7.066,0,0,1-.458,2.6,5.69,5.69,0,0,1-3.3,3.307,6.983,6.983,0,0,1-2.589.461h-4.8v-12.733h4.8a6.988,6.988,0,0,1,2.589.461,5.682,5.682,0,0,1,3.3,3.312A7.072,7.072,0,0,1,1152.256,3460.775Zm-1.939,0a6.2,6.2,0,0,0-.312-2.035,4.3,4.3,0,0,0-.885-1.525,3.776,3.776,0,0,0-1.388-.953,4.835,4.835,0,0,0-1.819-.328h-2.9v9.682h2.9a4.83,4.83,0,0,0,1.819-.328,3.776,3.776,0,0,0,1.388-.953,4.31,4.31,0,0,0,.885-1.521A6.186,6.186,0,0,0,1150.317,3460.775Z" transform="translate(-1105.538 -3454.054)" fill="#fff"/><path d="M1174.334,3454.983a1.107,1.107,0,0,1-.1.457,1.271,1.271,0,0,1-.263.381,1.209,1.209,0,0,1-.849.35,1.131,1.131,0,0,1-.453-.093,1.235,1.235,0,0,1-.378-.257,1.208,1.208,0,0,1-.258-.381,1.15,1.15,0,0,1-.094-.457,1.168,1.168,0,0,1,.094-.465,1.2,1.2,0,0,1,.258-.381,1.225,1.225,0,0,1,.378-.257,1.119,1.119,0,0,1,.453-.093,1.216,1.216,0,0,1,.849.35,1.26,1.26,0,0,1,.263.381A1.124,1.124,0,0,1,1174.334,3454.983Zm-.329,2.784v9.008h-1.735v-9.008Z" transform="translate(-1123.613 -3453.688)" fill="#fff"/><path d="M1189.734,3463.561v.647q0,.319-.4.4l-.97.142a3.147,3.147,0,0,1,.2.582,2.836,2.836,0,0,1,.071.642,2.69,2.69,0,0,1-.969,2.119,3.2,3.2,0,0,1-1.081.585,4.43,4.43,0,0,1-1.375.2,4.725,4.725,0,0,1-1.147-.133,1.336,1.336,0,0,0-.4.35.641.641,0,0,0-.138.377.5.5,0,0,0,.263.461,2,2,0,0,0,.685.217,7.821,7.821,0,0,0,.97.084q.547.019,1.112.058a9.841,9.841,0,0,1,1.112.142,3.335,3.335,0,0,1,.969.328,1.879,1.879,0,0,1,.685.62,1.823,1.823,0,0,1,.262,1.024,2.407,2.407,0,0,1-.289,1.135,2.99,2.99,0,0,1-.841.976,4.4,4.4,0,0,1-1.343.682,5.8,5.8,0,0,1-1.8.258,6.929,6.929,0,0,1-1.748-.2,4.134,4.134,0,0,1-1.237-.523,2.264,2.264,0,0,1-.738-.762,1.823,1.823,0,0,1-.244-.9,1.607,1.607,0,0,1,.409-1.113,2.711,2.711,0,0,1,1.129-.714,1.575,1.575,0,0,1-.623-.482,1.315,1.315,0,0,1-.231-.812,1.241,1.241,0,0,1,.071-.4,1.645,1.645,0,0,1,.218-.416,2.149,2.149,0,0,1,.365-.394,2.768,2.768,0,0,1,.5-.337,2.831,2.831,0,0,1-1.05-.989,2.676,2.676,0,0,1-.382-1.441,2.656,2.656,0,0,1,.974-2.11,3.236,3.236,0,0,1,1.094-.585,4.535,4.535,0,0,1,1.392-.2,3.975,3.975,0,0,1,2.02.488Zm-1.761,9.142a.717.717,0,0,0-.178-.51,1.213,1.213,0,0,0-.485-.3,3.236,3.236,0,0,0-.716-.159q-.409-.049-.858-.075t-.921-.049q-.472-.023-.907-.084a2.553,2.553,0,0,0-.76.559,1.108,1.108,0,0,0-.3.771,1.026,1.026,0,0,0,.147.532,1.253,1.253,0,0,0,.453.43,2.628,2.628,0,0,0,.774.284,5.312,5.312,0,0,0,1.117.1,5.109,5.109,0,0,0,1.13-.111,2.817,2.817,0,0,0,.823-.31,1.484,1.484,0,0,0,.507-.474A1.111,1.111,0,0,0,1187.973,3472.7Zm-2.767-4.965a2.447,2.447,0,0,0,.814-.124,1.611,1.611,0,0,0,.587-.35,1.461,1.461,0,0,0,.356-.545,1.976,1.976,0,0,0,.12-.7,1.664,1.664,0,0,0-.476-1.246,2.328,2.328,0,0,0-2.793,0,1.663,1.663,0,0,0-.476,1.246,1.928,1.928,0,0,0,.12.7,1.452,1.452,0,0,0,.356.541,1.66,1.66,0,0,0,.587.355A2.339,2.339,0,0,0,1185.206,3467.737Z" transform="translate(-1129.122 -3459.146)" fill="#fff"/><path d="M1207.25,3454.983a1.109,1.109,0,0,1-.1.457,1.285,1.285,0,0,1-.262.381,1.211,1.211,0,0,1-.387.257,1.2,1.2,0,0,1-.463.093,1.128,1.128,0,0,1-.453-.093,1.229,1.229,0,0,1-.378-.257,1.207,1.207,0,0,1-.258-.381,1.152,1.152,0,0,1-.094-.457,1.17,1.17,0,0,1,.094-.465,1.2,1.2,0,0,1,.258-.381,1.22,1.22,0,0,1,.378-.257,1.117,1.117,0,0,1,.453-.093,1.182,1.182,0,0,1,.463.093,1.2,1.2,0,0,1,.387.257,1.273,1.273,0,0,1,.262.381A1.126,1.126,0,0,1,1207.25,3454.983Zm-.329,2.784v9.008h-1.735v-9.008Z" transform="translate(-1142.91 -3453.688)" fill="#fff"/><path d="M1217.549,3468.484a2.237,2.237,0,0,1-1.686-.612,2.412,2.412,0,0,1-.591-1.747v-5.391h-1.05a.363.363,0,0,1-.253-.093.358.358,0,0,1-.1-.279v-.7l1.468-.2.391-2.686a.419.419,0,0,1,.138-.235.4.4,0,0,1,.263-.084h.881v3.023h2.562v1.259h-2.562v5.276a1.076,1.076,0,0,0,.262.793.91.91,0,0,0,.672.262,1.225,1.225,0,0,0,.413-.062,1.669,1.669,0,0,0,.3-.138c.083-.05.154-.1.214-.137a.294.294,0,0,1,.16-.062.212.212,0,0,1,.138.04.488.488,0,0,1,.1.128l.516.833a3,3,0,0,1-1.014.6A3.541,3.541,0,0,1,1217.549,3468.484Z" transform="translate(-1148.192 -3455.255)" fill="#fff"/><path d="M1230.307,3464.458a4.971,4.971,0,0,1,3.585-1.427,3.483,3.483,0,0,1,1.37.252,2.822,2.822,0,0,1,1.005.705,2.99,2.99,0,0,1,.618,1.082,4.391,4.391,0,0,1,.209,1.392v5.745h-.774a.735.735,0,0,1-.392-.084.582.582,0,0,1-.213-.315l-.187-.789a7.448,7.448,0,0,1-.685.563,4.427,4.427,0,0,1-.708.417,3.587,3.587,0,0,1-.787.261,4.436,4.436,0,0,1-.925.089,3.328,3.328,0,0,1-1-.146,2.255,2.255,0,0,1-.814-.447,2.114,2.114,0,0,1-.547-.754,2.585,2.585,0,0,1-.2-1.055,1.992,1.992,0,0,1,.289-1.024,2.6,2.6,0,0,1,.942-.882,6.088,6.088,0,0,1,1.708-.638,12.855,12.855,0,0,1,2.593-.284v-.655a2.285,2.285,0,0,0-.436-1.525,1.6,1.6,0,0,0-1.281-.505,2.807,2.807,0,0,0-.956.142,3.718,3.718,0,0,0-.667.315c-.187.115-.351.22-.49.314a.759.759,0,0,1-.431.143.493.493,0,0,1-.307-.1.792.792,0,0,1-.209-.23Zm5.088,3.751a13.389,13.389,0,0,0-1.8.163,4.97,4.97,0,0,0-1.2.342,1.632,1.632,0,0,0-.667.5,1.082,1.082,0,0,0-.2.643,1.387,1.387,0,0,0,.111.581,1.081,1.081,0,0,0,.3.4,1.214,1.214,0,0,0,.449.227,2.105,2.105,0,0,0,.56.07,3.153,3.153,0,0,0,.734-.08,2.928,2.928,0,0,0,.627-.226,3.182,3.182,0,0,0,.56-.359,5.032,5.032,0,0,0,.525-.488Z" transform="translate(-1157.57 -3459.121)" fill="#fff"/><path d="M1254.8,3453.549v13.087h-1.743v-13.087Z" transform="translate(-1171.17 -3453.549)" fill="#fff"/><path d="M1289.262,3454.408l-3.985,12.733h-1.708l-3.114-9.442a4.5,4.5,0,0,1-.187-.683c-.065.272-.127.5-.186.683l-3.149,9.442h-1.7l-3.985-12.733h1.583a.7.7,0,0,1,.418.12.559.559,0,0,1,.223.323l2.517,8.521q.071.248.129.541l.12.612q.062-.319.129-.612a4.594,4.594,0,0,1,.156-.541l2.882-8.521a.615.615,0,0,1,.227-.31.663.663,0,0,1,.414-.133h.542a.652.652,0,0,1,.409.125.7.7,0,0,1,.231.319l2.873,8.521a9.64,9.64,0,0,1,.285,1.108q.107-.612.231-1.108l2.526-8.521a.558.558,0,0,1,.223-.31.683.683,0,0,1,.418-.133Z" transform="translate(-1181.833 -3454.054)" fill="#fff"/><path d="M1318.96,3463.1a4.785,4.785,0,0,1,1.8.323,3.758,3.758,0,0,1,1.37.931,4.142,4.142,0,0,1,.867,1.463,6.246,6.246,0,0,1,0,3.844,4.093,4.093,0,0,1-.867,1.463,3.8,3.8,0,0,1-1.37.927,5.213,5.213,0,0,1-3.611,0,3.835,3.835,0,0,1-1.374-.927,4.1,4.1,0,0,1-.876-1.463,6.171,6.171,0,0,1,0-3.844,4.154,4.154,0,0,1,.876-1.463,3.8,3.8,0,0,1,1.374-.931A4.81,4.81,0,0,1,1318.96,3463.1Zm0,7.926a2.218,2.218,0,0,0,1.913-.86,4.963,4.963,0,0,0,0-4.845,2.214,2.214,0,0,0-1.913-.864,2.245,2.245,0,0,0-1.934.864,4.932,4.932,0,0,0,0,4.845A2.249,2.249,0,0,0,1318.96,3471.021Z" transform="translate(-1207.244 -3459.159)" fill="#fff"/><path d="M1341.943,3464.928a4.121,4.121,0,0,1,1.05-1.392,2.4,2.4,0,0,1,2.033-.439,1.436,1.436,0,0,1,.458.2l-.116,1.3a.281.281,0,0,1-.293.239,2.169,2.169,0,0,1-.374-.049,2.8,2.8,0,0,0-.534-.048,2.09,2.09,0,0,0-.738.12,1.716,1.716,0,0,0-.574.354,2.4,2.4,0,0,0-.449.576,5.81,5.81,0,0,0-.365.775v5.64h-1.734V3463.2h1a.549.549,0,0,1,.387.1.678.678,0,0,1,.147.359Z" transform="translate(-1222.319 -3459.121)" fill="#fff"/><path d="M1357.8,3453.549v7.652h.409a.8.8,0,0,0,.312-.053.738.738,0,0,0,.258-.213l2.7-2.97a.879.879,0,0,1,.276-.252.783.783,0,0,1,.383-.084h1.583l-3.194,3.485a2.075,2.075,0,0,1-.552.505,1.515,1.515,0,0,1,.3.266q.129.151.253.328l3.4,4.424h-1.556a.883.883,0,0,1-.37-.071.691.691,0,0,1-.281-.257l-2.793-3.617a.669.669,0,0,0-.266-.262,1.052,1.052,0,0,0-.4-.058h-.463v4.265h-1.735v-13.087Z" transform="translate(-1231.557 -3453.549)" fill="#fff"/><path d="M1382.572,3464.789a.49.49,0,0,1-.151.164.392.392,0,0,1-.2.049.655.655,0,0,1-.316-.1q-.174-.1-.418-.213a4.106,4.106,0,0,0-.574-.213,2.787,2.787,0,0,0-.783-.1,2.35,2.35,0,0,0-.68.093,1.626,1.626,0,0,0-.52.257,1.143,1.143,0,0,0-.329.39,1.045,1.045,0,0,0-.116.483.8.8,0,0,0,.2.558,1.7,1.7,0,0,0,.525.381,5.013,5.013,0,0,0,.738.288q.414.129.845.271t.845.323a3.107,3.107,0,0,1,.738.452,2.141,2.141,0,0,1,.525.652,1.985,1.985,0,0,1,.2.931,2.957,2.957,0,0,1-.227,1.166,2.541,2.541,0,0,1-.667.927,3.164,3.164,0,0,1-1.09.612,4.6,4.6,0,0,1-1.486.221,4.687,4.687,0,0,1-1.726-.311,4.329,4.329,0,0,1-1.325-.789l.409-.665a.524.524,0,0,1,.178-.191.532.532,0,0,1,.285-.066.6.6,0,0,1,.346.124c.119.083.261.173.427.271a3.224,3.224,0,0,0,.6.266,2.825,2.825,0,0,0,.89.12,2.433,2.433,0,0,0,.774-.11,1.6,1.6,0,0,0,.547-.3,1.218,1.218,0,0,0,.325-.439,1.314,1.314,0,0,0,.106-.523.878.878,0,0,0-.2-.59,1.715,1.715,0,0,0-.525-.4,4.2,4.2,0,0,0-.742-.293q-.418-.123-.854-.266a8.764,8.764,0,0,1-.854-.328,2.926,2.926,0,0,1-.743-.47,2.181,2.181,0,0,1-.525-.691,2.242,2.242,0,0,1-.2-.993,2.394,2.394,0,0,1,.218-1,2.479,2.479,0,0,1,.631-.842,3.11,3.11,0,0,1,1.023-.581,4.135,4.135,0,0,1,1.392-.217,4.415,4.415,0,0,1,1.624.284,3.728,3.728,0,0,1,1.241.78Z" transform="translate(-1243.583 -3459.159)" fill="#fff"/><path d="M1398.517,3464.547a5.442,5.442,0,0,1,.609-.616,3.843,3.843,0,0,1,.7-.479,3.64,3.64,0,0,1,.8-.31,3.532,3.532,0,0,1,.9-.111,3.184,3.184,0,0,1,1.4.3,2.928,2.928,0,0,1,1.072.886,4.311,4.311,0,0,1,.689,1.445,7.261,7.261,0,0,1,.245,1.978,6.11,6.11,0,0,1-.272,1.857,4.557,4.557,0,0,1-.774,1.484,3.591,3.591,0,0,1-1.228.989,3.63,3.63,0,0,1-1.632.359,3.3,3.3,0,0,1-1.388-.266,3.341,3.341,0,0,1-1.032-.745v3.91h-1.734V3463.2h1.041a.423.423,0,0,1,.453.346Zm.089,5.444a2.455,2.455,0,0,0,.921.78,2.673,2.673,0,0,0,1.108.222,2.188,2.188,0,0,0,1.846-.855,4.06,4.06,0,0,0,.654-2.5,6.334,6.334,0,0,0-.147-1.468,2.78,2.78,0,0,0-.427-.993,1.7,1.7,0,0,0-.689-.567,2.256,2.256,0,0,0-.925-.182,2.478,2.478,0,0,0-1.312.337,3.737,3.737,0,0,0-1.028.957Z" transform="translate(-1255.481 -3459.121)" fill="#fff"/><path d="M1419.87,3464.458a4.971,4.971,0,0,1,3.584-1.427,3.485,3.485,0,0,1,1.37.252,2.819,2.819,0,0,1,1,.705,2.989,2.989,0,0,1,.619,1.082,4.409,4.409,0,0,1,.209,1.392v5.745h-.774a.734.734,0,0,1-.391-.084.582.582,0,0,1-.214-.315l-.187-.789a7.383,7.383,0,0,1-.685.563,4.417,4.417,0,0,1-.707.417,3.605,3.605,0,0,1-.787.261,4.436,4.436,0,0,1-.925.089,3.325,3.325,0,0,1-1-.146,2.259,2.259,0,0,1-.814-.447,2.123,2.123,0,0,1-.547-.754,2.593,2.593,0,0,1-.2-1.055,1.991,1.991,0,0,1,.289-1.024,2.6,2.6,0,0,1,.943-.882,6.091,6.091,0,0,1,1.708-.638,12.863,12.863,0,0,1,2.593-.284v-.655a2.287,2.287,0,0,0-.436-1.525,1.6,1.6,0,0,0-1.281-.505,2.807,2.807,0,0,0-.956.142,3.733,3.733,0,0,0-.667.315c-.187.115-.35.22-.49.314a.759.759,0,0,1-.431.143.49.49,0,0,1-.307-.1.785.785,0,0,1-.209-.23Zm5.088,3.751a13.389,13.389,0,0,0-1.8.163,4.972,4.972,0,0,0-1.2.342,1.636,1.636,0,0,0-.668.5,1.085,1.085,0,0,0-.2.643,1.38,1.38,0,0,0,.111.581,1.084,1.084,0,0,0,.3.4,1.215,1.215,0,0,0,.449.227,2.1,2.1,0,0,0,.561.07,3.157,3.157,0,0,0,.734-.08,2.921,2.921,0,0,0,.627-.226,3.174,3.174,0,0,0,.56-.359,5.032,5.032,0,0,0,.525-.488Z" transform="translate(-1268.703 -3459.121)" fill="#fff"/><path d="M1448.14,3464.922a.931.931,0,0,1-.156.155.349.349,0,0,1-.218.058.517.517,0,0,1-.3-.11,3.982,3.982,0,0,0-.391-.24,3.574,3.574,0,0,0-.569-.239,2.649,2.649,0,0,0-.823-.111,2.623,2.623,0,0,0-1.13.23,2.173,2.173,0,0,0-.814.656,3,3,0,0,0-.494,1.037,5.15,5.15,0,0,0-.17,1.375,5.066,5.066,0,0,0,.178,1.405,3.026,3.026,0,0,0,.507,1.037,2.137,2.137,0,0,0,.8.638,2.477,2.477,0,0,0,1.05.218,2.644,2.644,0,0,0,.925-.138,3,3,0,0,0,.605-.3,4.165,4.165,0,0,0,.4-.3.506.506,0,0,1,.329-.137.381.381,0,0,1,.329.16l.5.638a3.342,3.342,0,0,1-.7.647,3.967,3.967,0,0,1-.823.435,4.625,4.625,0,0,1-.912.248,5.8,5.8,0,0,1-.965.079,4.018,4.018,0,0,1-1.579-.31,3.575,3.575,0,0,1-1.272-.9,4.315,4.315,0,0,1-.849-1.459,5.768,5.768,0,0,1-.312-1.964,5.886,5.886,0,0,1,.281-1.853,4.111,4.111,0,0,1,.827-1.467,3.83,3.83,0,0,1,1.348-.967,4.528,4.528,0,0,1,1.832-.35,4.37,4.37,0,0,1,1.708.311,4.174,4.174,0,0,1,1.316.878Z" transform="translate(-1281.522 -3459.159)" fill="#fff"/><path d="M1469.414,3470.96a3.42,3.42,0,0,1-.739.643,4.294,4.294,0,0,1-.889.439,5.387,5.387,0,0,1-.974.248,6.286,6.286,0,0,1-.992.079,4.671,4.671,0,0,1-1.73-.314,3.845,3.845,0,0,1-1.379-.922,4.2,4.2,0,0,1-.907-1.508,6.072,6.072,0,0,1-.325-2.07,5.11,5.11,0,0,1,.293-1.751,4.216,4.216,0,0,1,.841-1.414,3.875,3.875,0,0,1,1.339-.948,4.389,4.389,0,0,1,1.779-.346,4.182,4.182,0,0,1,1.525.271,3.389,3.389,0,0,1,1.205.784,3.633,3.633,0,0,1,.8,1.269,4.773,4.773,0,0,1,.289,1.72,1.1,1.1,0,0,1-.089.536.363.363,0,0,1-.329.137H1463.2a4.858,4.858,0,0,0,.232,1.406,2.824,2.824,0,0,0,.565,1,2.238,2.238,0,0,0,.858.594,3.028,3.028,0,0,0,1.112.2,3.37,3.37,0,0,0,1-.132,4.949,4.949,0,0,0,.729-.289c.2-.1.376-.2.516-.289a.718.718,0,0,1,.369-.133.381.381,0,0,1,.329.16Zm-1.432-4.22a2.953,2.953,0,0,0-.146-.949,2.155,2.155,0,0,0-.432-.754,1.962,1.962,0,0,0-.694-.5,2.346,2.346,0,0,0-.943-.178,2.321,2.321,0,0,0-1.721.63,3.037,3.037,0,0,0-.8,1.747Z" transform="translate(-1293.358 -3459.159)" fill="#fff"/><path d="M1507.672,3454.408v12.733h-1.895V3461.4h-6.662v5.736h-1.9v-12.733h1.9v5.622h6.662v-5.622Z" transform="translate(-1314.306 -3454.054)" fill="#fff"/><path d="M1536.259,3463.439v9.008h-1.041a.444.444,0,0,1-.462-.346l-.125-.9a6.154,6.154,0,0,1-.614.567,3.751,3.751,0,0,1-1.459.722,3.627,3.627,0,0,1-.881.1,3.23,3.23,0,0,1-1.312-.249,2.593,2.593,0,0,1-.948-.7,3.007,3.007,0,0,1-.578-1.077,4.676,4.676,0,0,1-.2-1.392v-5.737h1.743v5.737a2.288,2.288,0,0,0,.445,1.5,1.666,1.666,0,0,0,1.361.537,2.565,2.565,0,0,0,1.245-.315,4.243,4.243,0,0,0,1.085-.864v-6.6Z" transform="translate(-1332.735 -3459.361)" fill="#fff"/><path d="M1554.651,3458.869a4.681,4.681,0,0,1,1.273-1,3.367,3.367,0,0,1,1.619-.381,3.256,3.256,0,0,1,1.427.306,3,3,0,0,1,1.081.878,4.125,4.125,0,0,1,.685,1.387,6.511,6.511,0,0,1,.24,1.844,6.823,6.823,0,0,1-.271,1.986,4.607,4.607,0,0,1-.774,1.534,3.464,3.464,0,0,1-1.223.988,3.65,3.65,0,0,1-1.619.35,3.563,3.563,0,0,1-.8-.084,2.841,2.841,0,0,1-.672-.244,2.773,2.773,0,0,1-.565-.39,4.153,4.153,0,0,1-.489-.523l-.08.753a.408.408,0,0,1-.445.364h-1.121v-13.087h1.734Zm0,5.55a2.436,2.436,0,0,0,.925.78,2.643,2.643,0,0,0,1.085.222,2.2,2.2,0,0,0,1.864-.861,4.269,4.269,0,0,0,.653-2.6,3.86,3.86,0,0,0-.578-2.354,1.947,1.947,0,0,0-1.637-.749,2.417,2.417,0,0,0-1.294.337,3.808,3.808,0,0,0-1.019.957Z" transform="translate(-1346.964 -3453.549)" fill="#fff"/></g><g transform="translate(99.766 20.378)"><path d="M1179.576,3368.683H1168.9l-2.378,8.361h-5.34l8.635-28.17a1.754,1.754,0,0,1,1.877-1.415h5.089a1.754,1.754,0,0,1,1.877,1.415l8.635,28.17h-5.34Zm-1.251-4.416-2.878-10.2q-.585-2.316-.626-2.53h-1.126l-.667,2.53-2.878,10.2Z" transform="translate(-1161.179 -3346.902)" fill="#fff"/><path d="M1230.23,3350.952l-.25-4.073a49.928,49.928,0,0,1,8.593-.772q4.921,0,7.029,1.5t2.107,5.359a11.576,11.576,0,0,1-.939,5.1,4.385,4.385,0,0,1-3.275,2.358v.171a5.175,5.175,0,0,1,3.8,2.273,10.584,10.584,0,0,1,1.168,5.145q.083,4.63-2.086,6.71t-7.383,2.079a69.38,69.38,0,0,1-9.553-.772l.25-4.2q5.006.344,7.926.343,3.211,0,4.443-1.029t1.23-3.773a5.148,5.148,0,0,0-1-3.537q-1-1.094-3.88-1.051h-5.34V3358.8h5.34q2.712,0,3.525-1.115a5.75,5.75,0,0,0,.813-3.387q-.042-2.316-1.022-2.958a8.163,8.163,0,0,0-3.984-.643Q1233.233,3350.7,1230.23,3350.952Z" transform="translate(-1201.196 -3346.107)" fill="#fff"/><path d="M1297.8,3364.6l-5.8-1.886a8.029,8.029,0,0,1-4.464-3.109,9.981,9.981,0,0,1-1.335-5.467q0-4.845,2.19-6.389t7.7-1.544a36.052,36.052,0,0,1,9.052.986l-.334,3.816q-4.756-.17-8.552-.171a8.413,8.413,0,0,0-3.838.579q-.96.578-.96,2.808a3.83,3.83,0,0,0,.688,2.594,6.01,6.01,0,0,0,2.524,1.35l5.548,1.757a8.176,8.176,0,0,1,4.61,3.152,10.111,10.111,0,0,1,1.314,5.466q0,4.888-2.253,6.582t-7.968,1.694a46.3,46.3,0,0,1-9.344-.943l.334-3.945q7.3.171,9.136.172a7.257,7.257,0,0,0,3.838-.686q.958-.686.959-2.915a4,4,0,0,0-.646-2.616A5.443,5.443,0,0,0,1297.8,3364.6Z" transform="translate(-1234.474 -3346.168)" fill="#fff"/><path d="M1351.808,3377.043h-5.215v-29.584h5.215Z" transform="translate(-1269.88 -3346.902)" fill="#fff"/><path d="M1379.736,3347.459v22.682a2.648,2.648,0,0,0,.542,1.908,2.7,2.7,0,0,0,1.919.536h10.012l.209,4.159q-4.089.386-11.43.385-6.467,0-6.466-6.131v-23.539Z" transform="translate(-1286.253 -3346.902)" fill="#fff"/><path d="M1444.143,3350.8h-9.3v26.24h-3.671V3350.8h-9.261v-3.344h22.234Z" transform="translate(-1314.035 -3346.902)" fill="#fff"/><path d="M1503.963,3373.853l.167,2.916q-3.838.257-12.347.257a5.634,5.634,0,0,1-4.025-1.393,5.032,5.032,0,0,1-1.523-3.752V3352.5a5.035,5.035,0,0,1,1.523-3.752,5.636,5.636,0,0,1,4.025-1.393q8.509,0,12.347.258l-.167,2.958h-11.555q-2.5,0-2.5,2.83v6.431h12.431v3.044h-12.431v8.1q0,2.873,2.5,2.873Z" transform="translate(-1351.746 -3346.84)" fill="#fff"/><path d="M1559.431,3373.009l.376,2.83a31.149,31.149,0,0,1-8.427.986q-6.216,0-8.76-3.43t-2.545-11.877q0-8.446,2.545-11.877t8.76-3.431a32.066,32.066,0,0,1,7.842.858l-.376,2.873a73.109,73.109,0,0,0-7.467-.386q-4.214,0-5.82,2.594t-1.606,9.369q0,6.775,1.606,9.368t5.82,2.595A56.851,56.851,0,0,0,1559.431,3373.009Z" transform="translate(-1383.311 -3346.168)" fill="#fff"/><path d="M1620.774,3347.459v29.584H1617.1v-14.192h-13.265v14.192h-3.671v-29.584h3.671v12.134H1617.1v-12.134Z" transform="translate(-1418.54 -3346.902)" fill="#fff"/></g><g transform="translate(0)"><path d="M1110.593,3323.049a18.238,18.238,0,0,0-6.543-.019,4.628,4.628,0,0,0-2.276,1.156,49.417,49.417,0,0,0-3.8,7.615,11.142,11.142,0,0,0-.244,6.732c.935,3.041,1.634,6.181,2.044,8.24a43.187,43.187,0,0,1-.763,20.819,1.918,1.918,0,0,0,1.071,2.706,11.559,11.559,0,0,0,6.609.043,3.119,3.119,0,0,0,1.631-1.384c.646-1.094,1.047-2.293,1.757-5.948a52.436,52.436,0,0,0,.4-9.858,50.1,50.1,0,0,0-1.032-7.315c-.327-1.721-1.935-6.758-2.313-8.343-.423-1.777-.359-2.291.4-4.35.483-1.318,2.442-5.115,3.615-7.223.433-.78.917-1.641.4-2.3A1.975,1.975,0,0,0,1110.593,3323.049Z" transform="translate(-1023.976 -3312.002)" fill="#fff"/><path d="M1071.935,3354.049c-.226-.625-.417-1.243-.646-1.866a5.128,5.128,0,0,1-.163-.532.785.785,0,0,0-.922-.577,8.375,8.375,0,0,1-7.027-1.784.771.771,0,0,0-.83-.1,1.207,1.207,0,0,0-.7,1.007,7.314,7.314,0,0,0,.139,1.684c.462,2.583,2.041,7.069,2.905,10.01a32.464,32.464,0,0,1,1.051,13.611,29.536,29.536,0,0,1-2.007,7.393,2.4,2.4,0,0,0-.108,1.89,2.169,2.169,0,0,0,.887.926,10.294,10.294,0,0,0,6.843.056,3.425,3.425,0,0,0,1.631-1.384,29.668,29.668,0,0,0,1.611-6.245,42.576,42.576,0,0,0-.676-17.049C1073.561,3359.607,1072.39,3355.3,1071.935,3354.049Z" transform="translate(-1003.059 -3327.493)" fill="#fff"/><g transform="translate(42.945)"><path d="M1029.827,3325.2a.572.572,0,0,0,.938.238,7.868,7.868,0,0,1,6.748-2.049.571.571,0,0,0,.647-.711,10.348,10.348,0,0,1,.087-6.278,44.549,44.549,0,0,1,2.306-5.078c.89-1.84,1.783-3.595,2.767-5.837a6.277,6.277,0,0,0,.319-2.9,8.538,8.538,0,0,0-2.313-4.932c-1.926-2.129-3.093-.3-4.189,1.572-1.28,2.188-3.631,6.625-4.4,8.192s-2.8,6.131-3.071,7.066a16.283,16.283,0,0,0-.079,9.991Z" transform="translate(-1026.775 -3296.693)" fill="#fff"/><path d="M1033.247,3396.52a7.857,7.857,0,0,1-2.24-.324.578.578,0,0,0-.746.6,21.717,21.717,0,0,1,.062,3.209c-.4,6.875-5.554,14.194-6.111,15.675a7.5,7.5,0,0,0,1.085,6.672c.845,1.287,1.975,2.246,2.813,2.078a3.183,3.183,0,0,0,1.536-1.289c.666-1.013,1.816-2.714,2.282-3.554,1.63-2.941,2.272-3.953,3.464-6.489.564-1.2,1.163-2.572,1.973-4.611a26.619,26.619,0,0,0,1.649-7.052,33.171,33.171,0,0,0-.024-6.161.576.576,0,0,0-.93-.4A7.816,7.816,0,0,1,1033.247,3396.52Z" transform="translate(-1023.843 -3354.312)" fill="#fff"/></g><g transform="translate(0 10.742)"><path d="M1000.47,3341.34a33.567,33.567,0,0,1,1.9,10.088,42.467,42.467,0,0,1-.41,7.46.623.623,0,0,0,.779.688,7.34,7.34,0,0,1,6.627,1.472.627.627,0,0,0,1.024-.362,32.842,32.842,0,0,0,.194-11.274,48.308,48.308,0,0,0-2.437-9.658,15.793,15.793,0,0,1,.079-9.991,50.674,50.674,0,0,1,2.081-5.375c.249-.458-.174-1.116-.7-1.269a8.495,8.495,0,0,0-4.77-.075,3.171,3.171,0,0,0-1.916,1.175,48.531,48.531,0,0,0-3.651,9.07,6.267,6.267,0,0,0-.1,3.036A25.5,25.5,0,0,0,1000.47,3341.34Z" transform="translate(-966.359 -3322.741)" fill="#fff"/><path d="M951.021,3366.62a7.254,7.254,0,0,1,2.041-5.051.8.8,0,0,0,.215-.413c.052-.288.1-.56.138-.807.047-.3.251-1.155.288-1.458.212-1.75-.951-1-3.548.626a13.781,13.781,0,0,1-8.272,2.2c-7.9-.279-12.818-6.918-13.183-14.79-.406-8.749,5.051-15.691,13.739-15.691a15.1,15.1,0,0,1,6.471,1.431,9.862,9.862,0,0,0,1.539.627.609.609,0,0,0,.533-.328,61.273,61.273,0,0,1,2.7-7.044.368.368,0,0,0-.168-.476,2.623,2.623,0,0,0-.519-.184c-1.767-.477-2.978-1.087-3.887-1.362a20.513,20.513,0,0,0-6.443-1.156c-13.059-.106-22.448,11.166-22.616,24.182-.172,13.268,9.146,23.347,22.418,23.347a21.941,21.941,0,0,0,8.3-1.737l.005,0a.609.609,0,0,0,.359-.675A7.236,7.236,0,0,1,951.021,3366.62Z" transform="translate(-920.046 -3322.742)" fill="#fff"/></g></g><g transform="translate(34.111 10.723)"><ellipse cx="4.704" cy="4.688" rx="4.704" ry="4.688" transform="translate(26.674)" fill="#fff"/><ellipse cx="4.442" cy="4.428" rx="4.442" ry="4.428" transform="translate(13.795 19.243)" fill="#fff"/><ellipse cx="4.181" cy="4.167" rx="4.181" ry="4.167" transform="translate(0 39.73)" fill="#fff"/></g></svg>